<?xml version="1.0" ?><svg height="44px" version="1.1" viewBox="0 0 60 44" width="60px" xmlns="http://www.w3.org/2000/svg" xmlns:xlink="http://www.w3.org/1999/xlink"><title/><desc/><defs/><g fill="none" fill-rule="evenodd" id="Page-1" stroke="none" stroke-width="1"><g fill-rule="nonzero" id="036---Van"><g id="Icons" transform="translate(1.000000, 1.000000)"><path d="M58.0000008,24 L58,31 C58.0011948,32.8633674 56.7155888,34.4807426 54.9,34.9 L4.09,35 L4,35 C1.790861,35 2.22044605e-16,33.209139 0,31 L0,24 L58.0000008,24 Z" fill="#FFACAD" id="Shape"/><path d="M58,18.75 L58.0000155,24 L0,24 L0,18.33 C0.00173208583,18.1091229 0.0184370566,17.8886172 0.05,17.67 L2.44,3.34 C2.7627816,1.41055238 4.43374068,-0.0023598597 6.39,4.4408921e-16 L48.26,4.4408921e-16 C49.9103245,-0.00085185942 51.3917575,1.0119241 51.99,2.55 L57.73,17.3 C57.9098043,17.7622188 58.0013852,18.2540425 58,18.75 Z" fill="#FFACAD" id="Shape"/><rect fill="#FFFFFF" height="10" id="Rectangle-path" rx="1" width="10" x="17" y="4"/><rect fill="#FFFFFF" height="10" id="Rectangle-path" rx="1" width="10" x="31" y="4"/><path d="M13,13 L13,5 C13,4.44771525 12.5522847,4 12,4 L7.24,4 C6.75061706,3.99929338 6.3341485,4.35626644 6.26,4.84 L4.984,12.84 C4.93706745,13.1295488 5.01962906,13.4251027 5.20982573,13.6484105 C5.4000224,13.8717183 5.67867238,14.000259 5.972,14 L12,14 C12.5522847,14 13,13.5522847 13,13 Z" fill="#FFFFFF" id="Shape"/><path d="M58.0000008,25 L58,31 C58.0011948,32.8633674 56.7155888,34.4807426 54.9,34.9 L40,34.93 L40,25 L58.0000008,25 Z" fill="#F96A59" id="Shape"/><circle cx="10" cy="36" fill="#735EFF" id="Oval" r="6"/><circle cx="10" cy="36" fill="#000000" id="Oval" r="2"/><circle cx="49" cy="36" fill="#735EFF" id="Oval" r="6"/><circle cx="49" cy="36" fill="#000000" id="Oval" r="2"/><path d="M56.45,14 L46,14 C45.4477153,14 45,13.5522847 45,13 L45,5 C45,4.44771525 45.4477153,4 46,4 L52.55,4 L52.56,4.03 L56.45,14 Z" fill="#FFFFFF" id="Shape"/><rect fill="#F96A59" height="6" id="Rectangle-path" width="58" x="0" y="19"/></g><g fill="#000000" id="Layer_10"><path d="M53.456,3.368 C52.7881327,1.63379258 51.1183502,0.49248274 49.26,0.5 L7.39,0.5 C5.1868972,0.491078811 3.30368705,2.08394483 2.947,4.258 L0.555,18.6 C0.519693215,18.8417561 0.501315163,19.0856829 0.5,19.33 L0.5,32 C0.515369686,34.2910104 2.24957025,36.2047446 4.528,36.445 C4.513,36.628 4.5,36.813 4.5,37 C4.5,40.5898509 7.41014913,43.5 11,43.5 C14.5898509,43.5 17.5,40.5898509 17.5,37 C17.5,36.831 17.487,36.666 17.475,36.5 L43.525,36.5 C43.513,36.666 43.5,36.831 43.5,37 C43.5,40.5898509 46.4101491,43.5 50,43.5 C53.5898509,43.5 56.5,40.5898509 56.5,37 C56.4985097,36.7479833 56.4828182,36.4962509 56.453,36.246 C58.2770136,35.6344545 59.5046102,33.9237963 59.5,32 L59.5,19.75 C59.5026549,19.192376 59.4009026,18.6391824 59.2,18.119 L53.456,3.368 Z M1.5,25.5 L1.5,20.5 L58.5,20.5 L58.5,25.5 L1.5,25.5 Z M56.715,14.5 L47,14.5 C46.7238576,14.5 46.5,14.2761424 46.5,14 L46.5,6 C46.5,5.72385763 46.7238576,5.5 47,5.5 L53.213,5.5 L56.715,14.5 Z M1.543,18.752 L3.934,4.421 C4.21166784,2.73035149 5.67671972,1.49209439 7.39,1.5 L49.26,1.5 C50.7056393,1.49398937 52.0046241,2.3818678 52.524,3.731 L52.824,4.5 L47,4.5 C46.1715729,4.5 45.5,5.17157288 45.5,6 L45.5,14 C45.5,14.8284271 46.1715729,15.5 47,15.5 L57,15.5 C57.0338597,15.4968473 57.0673435,15.4904854 57.1,15.481 L58.268,18.481 C58.3900362,18.8075745 58.4615257,19.1508586 58.48,19.499 L1.5,19.499 L1.5,19.329 C1.5014466,19.1359228 1.51581203,18.9431588 1.543,18.752 Z M11,42.5 C7.96243388,42.5 5.5,40.0375661 5.5,37 C5.5,33.9624339 7.96243388,31.5 11,31.5 C14.0375661,31.5 16.5,33.9624339 16.5,37 C16.4966932,40.0361953 14.0361953,42.4966932 11,42.5 Z M11,30.5 C8.00254621,30.503285 5.39601428,32.5558773 4.69,35.469 C2.88949617,35.3117588 1.50607883,33.8073466 1.5,32 L1.5,26.5 L40.5,26.5 L40.5,35.5 L17.318,35.5 C16.6215295,32.5729089 14.0088047,30.5052255 11,30.5 Z M50,42.5 C46.9624339,42.5 44.5,40.0375661 44.5,37 C44.5,33.9624339 46.9624339,31.5 50,31.5 C53.0375661,31.5 55.5,33.9624339 55.5,37 C55.4966932,40.0361953 53.0361953,42.4966932 50,42.5 Z M56.257,35.262 C55.4665939,32.4048268 52.8411154,30.4459946 49.8771596,30.5020917 C46.9132039,30.5581889 44.3637266,32.6149645 43.682,35.5 L41.5,35.5 L41.5,26.5 L58.5000186,26.5 L58.5,32 C58.504722,33.4483756 57.6111006,34.7479712 56.257,35.262 Z" id="Shape"/><path d="M19,15.5 L27,15.5 C27.8284271,15.5 28.5,14.8284271 28.5,14 L28.5,6 C28.5,5.17157288 27.8284271,4.5 27,4.5 L19,4.5 C18.1715729,4.5 17.5,5.17157288 17.5,6 L17.5,14 C17.5,14.8284271 18.1715729,15.5 19,15.5 Z M18.5,6 C18.5,5.72385763 18.7238576,5.5 19,5.5 L27,5.5 C27.2761424,5.5 27.5,5.72385763 27.5,6 L27.5,14 C27.5,14.2761424 27.2761424,14.5 27,14.5 L19,14.5 C18.7238576,14.5 18.5,14.2761424 18.5,14 L18.5,6 Z" id="Shape"/><path d="M33,15.5 L41,15.5 C41.8284271,15.5 42.5,14.8284271 42.5,14 L42.5,6 C42.5,5.17157288 41.8284271,4.5 41,4.5 L33,4.5 C32.1715729,4.5 31.5,5.17157288 31.5,6 L31.5,14 C31.5,14.8284271 32.1715729,15.5 33,15.5 Z M32.5,6 C32.5,5.72385763 32.7238576,5.5 33,5.5 L41,5.5 C41.2761424,5.5 41.5,5.72385763 41.5,6 L41.5,14 C41.5,14.2761424 41.2761424,14.5 41,14.5 L33,14.5 C32.7238576,14.5 32.5,14.2761424 32.5,14 L32.5,6 Z" id="Shape"/><path d="M6.972,15.5 L13,15.5 C13.8284271,15.5 14.5,14.8284271 14.5,14 L14.5,6 C14.5,5.17157288 13.8284271,4.5 13,4.5 L8.24,4.5 C7.50549018,4.50084528 6.88055166,5.03547722 6.766,5.761 L5.49,13.761 C5.41992725,14.195168 5.54391952,14.6382151 5.82917642,14.9729396 C6.11443332,15.3076642 6.53221381,15.5003409 6.972,15.5 Z M7.755,5.912 C7.79296862,5.67386845 7.99886274,5.49896458 8.24,5.5 L13,5.5 C13.2761424,5.5 13.5,5.72385763 13.5,6 L13.5,14 C13.5,14.2761424 13.2761424,14.5 13,14.5 L6.972,14.5 C6.82571603,14.4997895 6.68686131,14.435528 6.59202574,14.3241491 C6.49719017,14.2127702 6.45588696,14.0654466 6.479,13.921 L7.755,5.912 Z" id="Shape"/><path d="M11,34.5 C9.61928813,34.5 8.5,35.6192881 8.5,37 C8.5,38.3807119 9.61928813,39.5 11,39.5 C12.3807119,39.5 13.5,38.3807119 13.5,37 C13.5,35.6192881 12.3807119,34.5 11,34.5 Z M11,38.5 C10.3933066,38.5 9.8463522,38.1345367 9.6141807,37.5740251 C9.3820092,37.0135136 9.51034283,36.3683368 9.93933983,35.9393398 C10.3683368,35.5103428 11.0135136,35.3820092 11.5740251,35.6141807 C12.1345367,35.8463522 12.5,36.3933066 12.5,37 C12.5,37.8284271 11.8284271,38.5 11,38.5 Z" id="Shape"/><path d="M50,34.5 C48.6192881,34.5 47.5,35.6192881 47.5,37 C47.5,38.3807119 48.6192881,39.5 50,39.5 C51.3807119,39.5 52.5,38.3807119 52.5,37 C52.5,35.6192881 51.3807119,34.5 50,34.5 Z M50,38.5 C49.1715729,38.5 48.5,37.8284271 48.5,37 C48.5,36.1715729 49.1715729,35.5 50,35.5 C50.8284271,35.5 51.5,36.1715729 51.5,37 C51.5,37.8284271 50.8284271,38.5 50,38.5 Z" id="Shape"/></g></g></g></svg>